<svg xmlns="http://www.w3.org/2000/svg" viewBox="0 0 1600 900">
  <defs>
    <linearGradient id="sky" x1="0" y1="0" x2="1" y2="1">
      <stop offset="0" stop-color="#f3eee6"/>
      <stop offset="1" stop-color="#d9d2c7"/>
    </linearGradient>
    <linearGradient id="glass" x1="0" y1="0" x2="0" y2="1">
      <stop offset="0" stop-color="#cfe7e6" stop-opacity="0.65"/>
      <stop offset="1" stop-color="#7fbdb9" stop-opacity="0.45"/>
    </linearGradient>
  </defs>
  <rect width="1600" height="900" fill="url(#sky)"/>
  <g opacity="0.22">
    <rect x="120" y="320" width="220" height="420" fill="#8b9198"/>
    <rect x="380" y="260" width="260" height="480" fill="url(#glass)"/>
    <rect x="700" y="340" width="200" height="400" fill="#7b8087"/>
    <rect x="940" y="300" width="260" height="440" fill="url(#glass)"/>
    <rect x="1240" y="360" width="180" height="380" fill="#868b92"/>
  </g>
  <g opacity="0.3" stroke="#f2b632" stroke-width="12" stroke-linecap="round">
    <line x1="160" y1="120" x2="160" y2="420"/>
    <line x1="160" y1="120" x2="560" y2="170"/>
    <line x1="520" y1="170" x2="520" y2="260" stroke-width="8"/>
  </g>
  <rect x="0" y="740" width="1600" height="160" fill="#1f2227" opacity="0.15"/>
  <g opacity="0.12" stroke="#1b1f24" stroke-width="1">
    <line x1="0" y1="90" x2="1600" y2="90"/>
    <line x1="0" y1="180" x2="1600" y2="180"/>
    <line x1="0" y1="270" x2="1600" y2="270"/>
    <line x1="0" y1="360" x2="1600" y2="360"/>
    <line x1="0" y1="450" x2="1600" y2="450"/>
    <line x1="0" y1="540" x2="1600" y2="540"/>
  </g>
</svg>
